<svg xmlns="http://www.w3.org/2000/svg" width="245.95" height="35" viewBox="0 0 245.95 35"><rect class="svg__rect" x="0" y="0" width="109.64" height="35" fill="#31C4F3"/><rect class="svg__rect" x="107.64" y="0" width="138.31" height="35" fill="#389AD5"/><path class="svg__text" d="M19.57 22L14.22 22L14.22 13.47L15.70 13.47L15.70 20.82L19.57 20.82L19.57 22ZM24.48 22L22.94 22L26.16 13.47L27.49 13.47L30.72 22L29.17 22L28.47 20.01L25.17 20.01L24.48 22ZM26.82 15.28L25.58 18.82L28.06 18.82L26.82 15.28ZM36.15 22L34.67 22L34.67 13.47L36.15 13.47L39.97 19.54L39.97 13.47L41.44 13.47L41.44 22L39.96 22L36.15 15.95L36.15 22ZM45.93 18.13L45.93 18.13L45.93 17.46Q45.93 15.53 46.86 14.44Q47.79 13.35 49.44 13.35L49.44 13.35Q50.87 13.35 51.71 14.05Q52.54 14.76 52.71 16.08L52.71 16.08L51.26 16.08Q51.01 14.54 49.47 14.54L49.47 14.54Q48.48 14.54 47.96 15.26Q47.44 15.98 47.42 17.37L47.42 17.37L47.42 18.02Q47.42 19.40 48.01 20.17Q48.59 20.93 49.63 20.93L49.63 20.93Q50.76 20.93 51.24 20.42L51.24 20.42L51.24 18.75L49.48 18.75L49.48 17.62L52.72 17.62L52.72 20.89Q52.26 21.50 51.44 21.81Q50.62 22.12 49.57 22.12L49.57 22.12Q48.50 22.12 47.67 21.63Q46.85 21.14 46.40 20.24Q45.95 19.33 45.93 18.13ZM57.20 19.16L57.20 19.16L57.20 13.47L58.68 13.47L58.68 19.18Q58.68 20.03 59.11 20.48Q59.55 20.93 60.39 20.93L60.39 20.93Q62.10 20.93 62.10 19.13L62.10 19.13L62.10 13.47L63.58 13.47L63.58 19.17Q63.58 20.53 62.71 21.32Q61.84 22.12 60.39 22.12L60.39 22.12Q58.92 22.12 58.06 21.33Q57.20 20.55 57.20 19.16ZM68.93 22L67.39 22L70.61 13.47L71.94 13.47L75.17 22L73.62 22L72.92 20.01L69.62 20.01L68.93 22ZM71.27 15.28L70.03 18.82L72.51 18.82L71.27 15.28ZM78.88 18.13L78.88 18.13L78.88 17.46Q78.88 15.53 79.80 14.44Q80.73 13.35 82.39 13.35L82.39 13.35Q83.81 13.35 84.65 14.05Q85.48 14.76 85.65 16.08L85.65 16.08L84.20 16.08Q83.96 14.54 82.41 14.54L82.41 14.54Q81.42 14.54 80.90 15.26Q80.38 15.98 80.36 17.37L80.36 17.37L80.36 18.02Q80.36 19.40 80.95 20.17Q81.53 20.93 82.57 20.93L82.57 20.93Q83.70 20.93 84.18 20.42L84.18 20.42L84.18 18.75L82.43 18.75L82.43 17.62L85.66 17.62L85.66 20.89Q85.20 21.50 84.38 21.81Q83.56 22.12 82.51 22.12L82.51 22.12Q81.44 22.12 80.62 21.63Q79.79 21.14 79.34 20.24Q78.89 19.33 78.88 18.13ZM95.86 22L90.28 22L90.28 13.47L95.81 13.47L95.81 14.66L91.76 14.66L91.76 17.02L95.26 17.02L95.26 18.19L91.76 18.19L91.76 20.82L95.86 20.82L95.86 22Z" fill="#FFFFFF"/><path class="svg__text" d="M120.75 20.93L120.75 20.93L122.04 19.40Q122.71 20.27 123.49 20.27L123.49 20.27Q123.49 20.27 123.50 20.27L123.50 20.27Q124.01 20.27 124.28 19.96Q124.55 19.65 124.55 19.05L124.55 19.05L124.55 15.44L121.65 15.44L121.65 13.60L126.91 13.60L126.91 18.91Q126.91 20.54 126.08 21.36Q125.26 22.17 123.67 22.17L123.67 22.17Q122.74 22.17 121.99 21.85Q121.23 21.53 120.75 20.93ZM133.41 22L130.99 22L134.70 13.60L137.04 13.60L140.75 22L138.29 22L137.62 20.37L134.07 20.37L133.41 22ZM135.85 15.93L134.77 18.61L136.93 18.61L135.85 15.93ZM147.49 22L143.90 13.60L146.47 13.60L148.75 19.07L151.08 13.60L153.43 13.60L149.83 22L147.49 22ZM159.00 22L156.57 22L160.28 13.60L162.63 13.60L166.34 22L163.87 22L163.21 20.37L159.66 20.37L159.00 22ZM161.44 15.93L160.35 18.61L162.52 18.61L161.44 15.93ZM169.91 21.24L169.91 21.24L170.69 19.49Q171.25 19.86 172.00 20.09Q172.74 20.32 173.46 20.32L173.46 20.32Q174.83 20.32 174.83 19.64L174.83 19.64Q174.83 19.28 174.44 19.11Q174.05 18.93 173.19 18.74L173.19 18.74Q172.24 18.53 171.60 18.30Q170.96 18.06 170.51 17.55Q170.06 17.03 170.06 16.16L170.06 16.16Q170.06 15.39 170.48 14.77Q170.89 14.15 171.73 13.79Q172.56 13.43 173.77 13.43L173.77 13.43Q174.60 13.43 175.40 13.62Q176.21 13.80 176.82 14.17L176.82 14.17L176.09 15.93Q174.89 15.28 173.76 15.28L173.76 15.28Q173.05 15.28 172.73 15.49Q172.41 15.70 172.41 16.04L172.41 16.04Q172.41 16.37 172.79 16.54Q173.17 16.71 174.02 16.89L174.02 16.89Q174.98 17.10 175.61 17.33Q176.24 17.56 176.71 18.07Q177.17 18.58 177.17 19.46L177.17 19.46Q177.17 20.21 176.75 20.83Q176.33 21.44 175.49 21.80Q174.65 22.17 173.45 22.17L173.45 22.17Q172.43 22.17 171.47 21.92Q170.51 21.67 169.91 21.24ZM181.32 17.80L181.32 17.80Q181.32 16.54 181.92 15.54Q182.51 14.55 183.57 13.99Q184.62 13.43 185.94 13.43L185.94 13.43Q187.09 13.43 188.01 13.84Q188.94 14.25 189.55 15.02L189.55 15.02L188.04 16.39Q187.22 15.40 186.06 15.40L186.06 15.40Q185.37 15.40 184.84 15.70Q184.31 16 184.01 16.54Q183.71 17.09 183.71 17.80L183.71 17.80Q183.71 18.51 184.01 19.05Q184.31 19.60 184.84 19.90Q185.37 20.20 186.06 20.20L186.06 20.20Q187.22 20.20 188.04 19.22L188.04 19.22L189.55 20.58Q188.94 21.35 188.02 21.76Q187.09 22.17 185.94 22.17L185.94 22.17Q184.62 22.17 183.57 21.61Q182.51 21.05 181.92 20.05Q181.32 19.06 181.32 17.80ZM196.46 22L194.09 22L194.09 13.60L197.93 13.60Q199.07 13.60 199.91 13.98Q200.75 14.35 201.20 15.06Q201.66 15.76 201.66 16.71L201.66 16.71Q201.66 17.62 201.23 18.30Q200.81 18.98 200.02 19.36L200.02 19.36L201.83 22L199.28 22L197.76 19.77L196.46 19.77L196.46 22ZM196.46 15.47L196.46 17.93L197.78 17.93Q198.52 17.93 198.89 17.61Q199.26 17.29 199.26 16.71L199.26 16.71Q199.26 16.12 198.89 15.79Q198.52 15.47 197.78 15.47L197.78 15.47L196.46 15.47ZM208.83 22L206.45 22L206.45 13.60L208.83 13.60L208.83 22ZM216.38 22L214.00 22L214.00 13.60L217.85 13.60Q218.98 13.60 219.82 13.98Q220.66 14.35 221.12 15.06Q221.58 15.76 221.58 16.71L221.58 16.71Q221.58 17.66 221.12 18.35Q220.66 19.05 219.82 19.42Q218.98 19.80 217.85 19.80L217.85 19.80L216.38 19.80L216.38 22ZM216.38 15.47L216.38 17.93L217.70 17.93Q218.43 17.93 218.80 17.61Q219.18 17.29 219.18 16.71L219.18 16.71Q219.18 16.12 218.80 15.80Q218.43 15.47 217.70 15.47L217.70 15.47L216.38 15.47ZM228.12 15.48L225.54 15.48L225.54 13.60L233.06 13.60L233.06 15.48L230.50 15.48L230.50 22L228.12 22L228.12 15.48Z" fill="#FFFFFF" x="120.64"/></svg>